<?xml version="1.0" standalone="no"?><!DOCTYPE svg PUBLIC "-//W3C//DTD SVG 1.1//EN" "http://www.w3.org/Graphics/SVG/1.1/DTD/svg11.dtd"><svg t="1709384796513" class="icon" viewBox="0 0 1024 1024" version="1.1" xmlns="http://www.w3.org/2000/svg" p-id="7438" xmlns:xlink="http://www.w3.org/1999/xlink" width="200" height="200"><path d="M775 474.72h36.86v314.64H775z" fill="#D770AD" p-id="7439"></path><path d="M775 581.88V397.53l184.33 92.18zM754.08 731.87c-16.16 0-30.78 6.64-41.26 17.35-10.49-10.71-25.1-17.35-41.27-17.35-31.9 0-57.77 25.87-57.77 57.77 0 66.04 99.05 123.81 99.05 123.81s99.03-57.77 99.03-123.81c0-31.9-25.86-57.77-57.78-57.77z" fill="#EC87C0" p-id="7440"></path><path d="M235.72 251.04h36.86v281.19h-36.86z" fill="#967ADC" p-id="7441"></path><path d="M214.81 473.91c-16.16 0-30.78 6.64-41.26 17.35-10.49-10.71-25.1-17.35-41.27-17.35-31.91 0-57.77 25.87-57.77 57.77 0 66.04 99.05 123.81 99.05 123.81s99.03-57.77 99.03-123.81c-0.01-31.9-25.88-57.77-57.78-57.77z" fill="#AC92EB" p-id="7442"></path><path d="M604.39 251.03h36.87v243.34h-36.87z" fill="#967ADC" p-id="7443"></path><path d="M583.49 437.05c-16.17 0-30.78 6.64-41.27 17.35-10.48-10.71-25.1-17.35-41.26-17.35-31.92 0-57.77 25.87-57.77 57.77 0 66.02 99.03 123.8 99.03 123.8s99.05-57.77 99.05-123.8c0-31.9-25.87-57.77-57.78-57.77zM235.72 323.68l405.55-72.65V102.47l-405.55 72.65z" fill="#AC92EB" p-id="7444"></path></svg>